<?xml version="1.0" encoding="UTF-8"?>
<svg width="1110px" height="420px" viewBox="0 0 1110 420" version="1.1" xmlns="http://www.w3.org/2000/svg" xmlns:xlink="http://www.w3.org/1999/xlink">
    <title>Slice</title>
    <g id="Page-1" stroke="none" stroke-width="1" fill="none" fill-rule="evenodd">
        <g id="Base" transform="translate(0.000000, -0.002339)">
            <circle id="mv_main_joy" fill="#000000" cx="378" cy="208" r="132"></circle>
            <path d="M732,2.84217094e-14 C747.463973,2.55810237e-14 760,12.536027 760,28 L760,392 C760,407.463973 747.463973,420 732,420 L28,420 C12.536027,420 1.8937905e-15,407.463973 0,392 L0,28 C-5.44650418e-15,12.536027 12.536027,3.12623952e-14 28,2.84217094e-14 L732,2.84217094e-14 Z M380,85 C310.964406,85 255,140.964406 255,210 C255,279.035594 310.964406,335 380,335 C449.035594,335 505,279.035594 505,210 C505,140.964406 449.035594,85 380,85 Z" id="Combined-Shape" fill="#111111"></path>
        </g>
        <g id="Ultrastick" transform="translate(830.000000, 140.000000)" fill="#111111">
            <rect id="Rectangle" x="0" y="0" width="280" height="280" rx="28"></rect>
        </g>
    </g>
</svg>