<?xml version="1.0" encoding="UTF-8"?>
<svg width="420px" height="116px" viewBox="0 0 420 116" version="1.1" xmlns="http://www.w3.org/2000/svg" xmlns:xlink="http://www.w3.org/1999/xlink">
    <title>lip_stick</title>
    <g id="Joystick" stroke="none" stroke-width="1" fill="none" fill-rule="evenodd">
        <g id="Group" fill="#DFDFDF" stroke="#DFDFDF" stroke-width="4">
            <g id="lip_stick">
                <path d="M210,2 C220.99798,2 231.255732,5.16984127 239.908587,10.6469241 L240.458709,10.9996503 L371,11 C383.978692,11 395.728692,16.2606542 404.234019,24.7659813 C412.604341,33.1363032 417.832178,44.64911 417.996032,57.3829038 L418,58 L418,60 C418,72.9786916 412.739346,84.7286916 404.234019,93.2340187 C395.863697,101.604341 384.35089,106.832178 371.617071,106.996032 L370.999974,107 L237.129626,107.001762 C229.092536,111.461351 219.842686,114 210,114 C200.397379,114 191.359029,111.583678 183.460609,107.324636 L182.870374,107.001762 L49,107 C36.0213084,107 24.2713084,101.739346 15.7659813,93.2340187 C7.39565938,84.8636968 2.1678224,73.35089 2.00396824,60.6170962 L2,60 L2,58 C2,45.0213084 7.26065419,33.2713084 15.7659813,24.7659813 C24.1363032,16.3956594 35.64911,11.1678224 48.382909,11.0039682 L49.0000054,11 L179.541291,10.9996503 C188.308103,5.3061631 198.768021,2 210,2 Z M80,17 C68.4020203,17 57.9020203,21.7010101 50.3015152,29.3015152 C42.7010101,36.9020203 38,47.4020203 38,59 C38,70.5979797 42.7010101,81.0979797 50.3015152,88.6984848 C57.9020203,96.2989899 68.4020203,101 80,101 C91.5979797,101 102.09798,96.2989899 109.698485,88.6984848 C117.29899,81.0979797 122,70.5979797 122,59 C122,47.4020203 117.29899,36.9020203 109.698485,29.3015152 C102.09798,21.7010101 91.5979797,17 80,17 Z M211,17 L211,17 L210.411227,17.0040427 C199.046921,17.1601892 188.773198,21.8298322 181.301515,29.3015152 C173.70101,36.9020203 169,47.4020203 169,59 C169,70.5979797 173.70101,81.0979797 181.301515,88.6984848 C188.90202,96.2989899 199.40202,101 211,101 C222.59798,101 233.09798,96.2989899 240.698485,88.6984848 C248.29899,81.0979797 253,70.5979797 253,59 C253,47.4020203 248.29899,36.9020203 240.698485,29.3015152 C233.09798,21.7010101 222.59798,17 211,17 L211,17 Z M340,17 C328.40202,17 317.90202,21.7010101 310.301515,29.3015152 C302.70101,36.9020203 298,47.4020203 298,59 C298,70.5979797 302.70101,81.0979797 310.301515,88.6984848 C317.90202,96.2989899 328.40202,101 340,101 C351.59798,101 362.09798,96.2989899 369.698485,88.6984848 C377.29899,81.0979797 382,70.5979797 382,59 C382,47.4020203 377.29899,36.9020203 369.698485,29.3015152 C362.09798,21.7010101 351.59798,17 340,17 Z" id="Combined-Shape"></path>
            </g>
        </g>
    </g>
</svg>